<svg xmlns="http://www.w3.org/2000/svg" version="1.1" viewBox="-0.38 -0.38 512.75 512.75">
<path d="M0 0 C1.01201477 0.00054382 2.02402954 0.00108765 3.06671143 0.00164795 C19.59887291 0.04238923 35.523992 0.95817716 51.75 4.375 C52.78125 4.58930664 53.8125 4.80361328 54.875 5.02441406 C101.10680927 14.94980561 143.72188765 37.60106665 177.75 70.375 C178.7390332 71.32318604 178.7390332 71.32318604 179.74804688 72.29052734 C189.23630305 81.43497479 197.9762044 90.73234009 205.75 101.375 C206.60806152 102.52605017 207.46613451 103.67709177 208.32421875 104.828125 C214.36236829 113.01930614 219.72095521 121.53304105 224.75 130.375 C225.11448242 131.00680176 225.47896484 131.63860352 225.85449219 132.28955078 C240.78473018 158.37464001 250.26385054 187.71085114 254.75 217.375 C254.92660156 218.49745117 255.10320312 219.61990234 255.28515625 220.77636719 C256.9420586 232.38947743 257.14873513 243.90679945 257.125 255.625 C257.12418427 257.14302216 257.12418427 257.14302216 257.12335205 258.69171143 C257.08261077 275.22387291 256.16682284 291.148992 252.75 307.375 C252.42854004 308.921875 252.42854004 308.921875 252.10058594 310.5 C242.17519439 356.73180927 219.52393335 399.34688765 186.75 433.375 C186.11787598 434.03435547 185.48575195 434.69371094 184.83447266 435.37304688 C175.69002521 444.86130305 166.39265991 453.6012044 155.75 461.375 C154.59894983 462.23306152 153.44790823 463.09113451 152.296875 463.94921875 C144.10569386 469.98736829 135.59195895 475.34595521 126.75 480.375 C126.11819824 480.73948242 125.48639648 481.10396484 124.83544922 481.47949219 C98.75035999 496.40973018 69.41414886 505.88885054 39.75 510.375 C38.62754883 510.55160156 37.50509766 510.72820312 36.34863281 510.91015625 C24.73552257 512.5670586 13.21820055 512.77373513 1.5 512.75 C-0.01802216 512.74918427 -0.01802216 512.74918427 -1.56671143 512.74835205 C-18.09887291 512.70761077 -34.023992 511.79182284 -50.25 508.375 C-51.796875 508.05354004 -51.796875 508.05354004 -53.375 507.72558594 C-99.60680927 497.80019439 -142.22188765 475.14893335 -176.25 442.375 C-176.90935547 441.74287598 -177.56871094 441.11075195 -178.24804688 440.45947266 C-187.73630305 431.31502521 -196.4762044 422.01765991 -204.25 411.375 C-205.10806152 410.22394983 -205.96613451 409.07290823 -206.82421875 407.921875 C-212.86236829 399.73069386 -218.22095521 391.21695895 -223.25 382.375 C-223.61448242 381.74319824 -223.97896484 381.11139648 -224.35449219 380.46044922 C-239.28473018 354.37535999 -248.76385054 325.03914886 -253.25 295.375 C-253.51490234 293.69132324 -253.51490234 293.69132324 -253.78515625 291.97363281 C-255.4420586 280.36052257 -255.64873513 268.84320055 -255.625 257.125 C-255.62445618 256.11298523 -255.62391235 255.10097046 -255.62335205 254.05828857 C-255.58261077 237.52612709 -254.66682284 221.601008 -251.25 205.375 C-251.03569336 204.34375 -250.82138672 203.3125 -250.60058594 202.25 C-240.67519439 156.01819073 -218.02393335 113.40311235 -185.25 79.375 C-184.61787598 78.71564453 -183.98575195 78.05628906 -183.33447266 77.37695312 C-174.19002521 67.88869695 -164.89265991 59.1487956 -154.25 51.375 C-153.09894983 50.51693848 -151.94790823 49.65886549 -150.796875 48.80078125 C-142.60569386 42.76263171 -134.09195895 37.40404479 -125.25 32.375 C-124.61819824 32.01051758 -123.98639648 31.64603516 -123.33544922 31.27050781 C-97.25035999 16.34026982 -67.91414886 6.86114946 -38.25 2.375 C-37.12754883 2.19839844 -36.00509766 2.02179687 -34.84863281 1.83984375 C-23.23552257 0.1829414 -11.71820055 -0.02373513 0 0 Z " fill="#222222" transform="translate(255.25,-0.375)"/>
<path d="M0 0 C14.19 0 28.38 0 43 0 C48.62517561 13.50042147 48.62517561 13.50042147 50.62109375 18.80761719 C51.07427979 20.00954208 51.52746582 21.21146698 51.99438477 22.44981384 C52.4754694 23.73215022 52.95650637 25.01450448 53.4375 26.296875 C53.95547108 27.67308593 54.47362386 29.04922848 54.99194336 30.42530823 C56.3764139 34.10256464 57.7582506 37.78080541 59.13952637 41.45926285 C60.59414252 45.33171535 62.05116134 49.2032638 63.5078125 53.07495117 C67.00872977 62.38197888 70.50492203 71.69077817 74 81 C74.50960049 82.35719897 75.01920328 83.71439708 75.52880859 85.07159424 C79.9557694 96.86212893 84.37930918 108.65393841 88.79621887 120.44824219 C89.20764633 121.5468457 89.61907379 122.64544922 90.04296875 123.77734375 C90.65267769 125.40542969 90.65267769 125.40542969 91.27470398 127.06640625 C93.83546431 133.90111185 96.40452727 140.73264152 98.97952271 147.56199646 C100.68701844 152.0908336 102.39226675 156.62051553 104.09741211 161.15023804 C104.90092254 163.28270097 105.70559095 165.41472797 106.51147461 167.54629517 C107.61081839 170.45425639 108.70623669 173.36366718 109.80078125 176.2734375 C110.1277449 177.13501968 110.45470856 177.99660187 110.7915802 178.8842926 C113 184.7722627 113 184.7722627 113 187 C113.66 187 114.32 187 115 187 C115.16639481 186.41190552 115.33278961 185.82381104 115.50422668 185.21789551 C117.45641184 178.49850598 119.80494412 171.99403825 122.32421875 165.46875 C122.74252457 164.37645584 123.16083038 163.28416168 123.59181213 162.1587677 C124.95372987 158.60456496 126.32060479 155.05229108 127.6875 151.5 C128.64133022 149.01340955 129.59485876 146.52670616 130.54785156 144.03979492 C131.99139874 140.27332416 133.43521232 136.50695723 134.88076782 132.74125671 C137.7142365 125.35906939 140.53859077 117.97353872 143.34765625 110.58203125 C143.67793823 109.71296646 144.00822021 108.84390167 144.34851074 107.94850159 C144.99713386 106.24151218 145.64571459 104.53450667 146.29425049 102.82748413 C152.4386428 86.65897035 158.65069877 70.51728574 164.89666748 54.38775635 C169.88406335 41.50818004 174.83232294 28.61513625 179.69067383 15.6862793 C180.28851685 14.09940308 180.28851685 14.09940308 180.8984375 12.48046875 C181.23536621 11.58223389 181.57229492 10.68399902 181.91943359 9.75854492 C183.20539821 6.47564518 184.6111266 3.24070461 186 0 C200.19 0 214.38 0 229 0 C229.02202671 29.02883063 229.04049806 58.05765541 229.05106533 87.0864923 C229.0523161 90.51005412 229.05361042 93.93361593 229.05493164 97.35717773 C229.05532511 98.37957452 229.05532511 98.37957452 229.05572652 99.42262579 C229.06008326 110.47324669 229.06797082 121.52386241 229.0771528 132.57448023 C229.08648924 143.90511931 229.09198069 155.23575455 229.09408849 166.56639773 C229.09539603 172.93413684 229.09848458 179.30186418 229.10573006 185.66959953 C229.11248631 191.65552517 229.11461777 197.64143412 229.11310768 203.6273632 C229.11338419 205.83130992 229.11539164 208.03525716 229.11920547 210.23920059 C229.12413656 213.23414924 229.12300046 216.22903383 229.12025452 219.22398376 C229.12462378 220.55031882 229.12462378 220.55031882 229.12908131 221.90344852 C229.11412121 227.88587879 229.11412121 227.88587879 228 229 C225.92737924 229.08767112 223.85179706 229.10695873 221.77734375 229.09765625 C220.51728516 229.09443359 219.25722656 229.09121094 217.95898438 229.08789062 C216.61848891 229.07953403 215.27799412 229.07106907 213.9375 229.0625 C212.59310058 229.0574866 211.2486994 229.05292342 209.90429688 229.04882812 C206.60282059 229.03699488 203.30143197 229.02050971 200 229 C199.97651287 208.55309053 199.95894386 188.10618383 199.94818783 167.65926361 C199.94305817 158.16281174 199.93607992 148.66636832 199.92456055 139.16992188 C199.91451092 130.88108009 199.90812244 122.59224442 199.90591151 114.3033967 C199.90462163 109.92521309 199.90164753 105.54704696 199.89426994 101.16886902 C199.86647971 84.03106268 199.89239417 66.93665464 200.77857971 49.81604004 C201.11433591 43.21081521 201.09536218 36.61177768 201 30 C191.93422401 53.36995127 191.93422401 53.36995127 182.98168945 76.78344727 C181.72611543 80.09040157 180.46813459 83.3964155 179.20678711 86.70117188 C174.45416501 99.15393625 169.74474262 111.62262967 165.04742432 124.09634399 C156.42162009 146.99737886 147.72550379 169.87063753 138.97973633 192.72607422 C138.35072166 194.37038422 138.35072166 194.37038422 137.70899963 196.0479126 C136.90108762 198.15981294 136.09286114 200.27159301 135.2842865 202.38323975 C133.54021764 206.94363293 131.80522138 211.50674349 130.10449219 216.08349609 C129.68204727 217.21992805 129.68204727 217.21992805 129.25106812 218.37931824 C128.74160801 219.7542466 128.23460451 221.13008893 127.73062134 222.5070343 C126.10850619 226.89149381 126.10850619 226.89149381 125 228 C123.21928754 228.08726223 121.4351686 228.10699041 119.65234375 228.09765625 C118.57275391 228.09443359 117.49316406 228.09121094 116.38085938 228.08789062 C115.24455078 228.07951172 114.10824219 228.07113281 112.9375 228.0625 C111.79732422 228.05798828 110.65714844 228.05347656 109.48242188 228.04882812 C106.65489649 228.03699747 103.8274736 228.0205141 101 228 C94.35150582 211.80234597 88.26560615 195.40503124 82.20187378 178.98257446 C79.29945183 171.12239233 76.38649492 163.26611191 73.47265625 155.41015625 C73.18603182 154.63723173 72.89940739 153.86430721 72.60409737 153.06796074 C68.11225028 140.95819853 63.56483227 128.87122386 58.9375 116.8125 C51.67291459 97.87763197 44.58338011 78.87820943 37.5 59.875 C37.21301617 59.10510868 36.92603233 58.33521736 36.63035202 57.541996 C33.0844701 48.02890221 29.54103663 38.51489846 26 29 C25.89349404 34.79865769 26.00307563 40.51468611 26.49681091 46.29507446 C27.12166303 54.75602965 27.13322783 63.17552242 27.11352539 71.65380859 C27.11324262 73.37998961 27.113403 75.10617074 27.1139679 76.83235168 C27.11425238 81.47394737 27.10841252 86.1155167 27.10139394 90.7571063 C27.09510186 95.62441591 27.094552 100.49172626 27.09336853 105.35903931 C27.09027237 114.55610554 27.08208229 123.75315974 27.07201904 132.9502207 C27.0608044 143.42918352 27.05533402 153.90814695 27.05032361 164.38711429 C27.03989808 185.92474973 27.02212842 207.46237368 27 229 C18.09 229 9.18 229 0 229 C0 153.43 0 77.86 0 0 Z " fill="#FBFBFB" transform="translate(241,142)"/>
<path d="M0 0 C9.57 0 19.14 0 29 0 C29.495 54.945 29.495 54.945 30 111 C38.66563632 101.65232527 38.66563632 101.65232527 47.1015625 92.1484375 C50.15996564 88.68728169 53.31149124 85.31256215 56.45043945 81.92456055 C61.01611674 76.9933435 65.51656761 72.00609118 70 67 C71.49956619 65.332943 72.99957053 63.66628005 74.5 62 C75.23992187 61.17757812 75.97984375 60.35515625 76.7421875 59.5078125 C78.26708244 57.81407106 79.79315402 56.12138831 81.3203125 54.4296875 C84.73833939 50.64089159 88.1474454 46.84694054 91.5 43 C96.37143203 37.41020011 101.3589515 31.92465102 106.328125 26.421875 C109.72344938 22.6569915 113.11058342 18.88806449 116.4375 15.0625 C116.97407227 14.47041748 117.51064453 13.87833496 118.06347656 13.26831055 C120.08243836 10.97894496 120.08243836 10.97894496 121.93334961 8.22119141 C125.27412563 3.80676518 128.22228396 -0.02023584 133.9050293 -0.8918457 C138.32750754 -1.21336379 142.7067756 -0.96435134 147.125 -0.6875 C148.66909488 -0.63221479 150.21338174 -0.58204362 151.7578125 -0.53710938 C155.51002138 -0.4169336 159.25285229 -0.22786278 163 0 C161.57567584 2.97816718 160.22096735 4.97931682 157.8125 7.25 C155.36401744 9.62823921 153.03928947 12.03799459 150.8125 14.625 C147.65917569 18.28143897 144.40727248 21.83484201 141.125 25.375 C136.80235068 30.03926296 132.52183243 34.73694285 128.27734375 39.47265625 C125.70190225 42.33082203 123.10314236 45.16710261 120.5 48 C117.14706883 51.64927171 113.81001643 55.31169598 110.5 59 C104.91080217 65.22569011 99.24475942 71.38053078 93.58398438 77.54101562 C93.11798828 78.04826172 92.65199219 78.55550781 92.171875 79.078125 C91.47602295 79.8352478 91.47602295 79.8352478 90.76611328 80.60766602 C89.84578369 81.61150041 88.92745402 82.61717239 88.01123047 83.62475586 C85.80049043 86.05464683 83.56514877 88.44668816 81.2734375 90.80078125 C80.02433594 92.10595703 80.02433594 92.10595703 78.75 93.4375 C78.00234375 94.19933594 77.2546875 94.96117187 76.484375 95.74609375 C74.78088568 97.88623033 74.78088568 97.88623033 74.98828125 100.4140625 C76.30365093 103.77612708 78.16723962 106.12889394 80.4375 108.9375 C81.36016413 110.09860171 82.28067535 111.26141692 83.19921875 112.42578125 C83.6689209 113.01955566 84.13862305 113.61333008 84.62255859 114.22509766 C86.74960674 116.96590589 88.75197039 119.78944582 90.75 122.625 C94.70493488 128.21637799 98.74037811 133.74341229 102.8125 139.25 C110.15571312 149.18657447 117.38740952 159.2011296 124.60449219 169.22949219 C131.26437889 178.48045943 137.97023328 187.69419367 144.74511719 196.86132812 C149.4837147 203.28033584 154.16616591 209.73860185 158.82617188 216.21484375 C159.33083984 216.91609375 159.83550781 217.61734375 160.35546875 218.33984375 C160.81872559 218.98550293 161.28198242 219.63116211 161.75927734 220.29638672 C162.7656807 221.67826051 163.8091602 223.03307874 164.86328125 224.37890625 C166 226 166 226 166 228 C161.46557471 228.27422093 156.93606624 228.47248476 152.39526367 228.60424805 C150.85534567 228.65920483 149.31599226 228.73401213 147.77807617 228.82983398 C135.05416784 229.60210625 135.05416784 229.60210625 130.08789062 225.72875977 C127.77982717 222.92873192 125.86238808 220.11061583 124 217 C123.16536276 215.84689644 122.32136994 214.70039178 121.4609375 213.56640625 C120.77257812 212.57511719 120.08421875 211.58382812 119.375 210.5625 C115.27609381 204.7282363 111.04010098 199.00744063 106.75 193.3125 C101.77986393 186.7111173 96.8344416 180.09339654 91.9375 173.4375 C91.36273926 172.65656982 90.78797852 171.87563965 90.19580078 171.07104492 C87.31795219 167.15835075 84.44467114 163.24234125 81.57421875 159.32421875 C74.53364126 149.72633276 67.39464439 140.21139523 60.15283203 130.76416016 C59.50942871 129.9241748 58.86602539 129.08418945 58.203125 128.21875 C57.63239258 127.47560547 57.06166016 126.73246094 56.47363281 125.96679688 C55.2622123 124.34996393 54.12067129 122.68100694 53 121 C49.23303261 122.58794878 46.65956183 124.97551512 43.6875 127.75 C42.72328125 128.63945312 41.7590625 129.52890625 40.765625 130.4453125 C39.85296875 131.28835938 38.9403125 132.13140625 38 133 C31.36470588 139 31.36470588 139 29 139 C29 168.7 29 198.4 29 229 C19.43 229 9.86 229 0 229 C0 153.43 0 77.86 0 0 Z " fill="#FCFCFC" transform="translate(43,142)"/>
</svg>